<svg width="583" height="581" xmlns="http://www.w3.org/2000/svg" xmlns:xlink="http://www.w3.org/1999/xlink" overflow="hidden"><defs><filter id="fx0" x="-10%" y="-10%" width="120%" height="120%" filterUnits="userSpaceOnUse" primitiveUnits="userSpaceOnUse"><feComponentTransfer color-interpolation-filters="sRGB"><feFuncR type="discrete" tableValues="0 0"/><feFuncG type="discrete" tableValues="0 0"/><feFuncB type="discrete" tableValues="0 0"/><feFuncA type="linear" slope="0.431373" intercept="0"/></feComponentTransfer><feGaussianBlur stdDeviation="1.33333 1.33333"/></filter><clipPath id="clip1"><rect x="255" y="71" width="583" height="581"/></clipPath><clipPath id="clip2"><rect x="-1" y="-1" width="585" height="583"/></clipPath><clipPath id="clip3"><rect x="0" y="0" width="584" height="582"/></clipPath></defs><g clip-path="url(#clip1)" transform="translate(-255 -71)"><g clip-path="url(#clip2)" filter="url(#fx0)" transform="translate(255 71)"><g clip-path="url(#clip3)"><path d="M204.912 420.043 249.184 420.043 293.456 420.043 337.728 420.043 382 420.043 382 424.047 337.728 424.047 293.456 424.047 249.184 424.047 204.912 424.047ZM364.471 365.989 347.583 394.418 369.274 394.418ZM237.408 365.989 220.52 394.418 242.21 394.418ZM362.71 357.981 368.793 357.981C369.54 357.981 370.074 358.141 370.394 358.462 370.714 358.782 370.901 359.209 370.955 359.743L379.759 411.555C379.919 412.356 379.839 412.969 379.519 413.397 379.199 413.824 378.772 414.037 378.238 414.037L374.156 414.037C373.569 414.037 373.116 413.89 372.795 413.597 372.475 413.303 372.262 412.863 372.155 412.275L370.074 401.305 343.821 401.305 336.938 412.676C336.724 413.05 336.417 413.37 336.017 413.637 335.617 413.904 335.15 414.037 334.616 414.037L330.294 414.037C329.601 414.037 329.134 413.757 328.894 413.196 328.653 412.636 328.693 412.089 329.014 411.555L359.829 359.743C360.149 359.209 360.536 358.782 360.99 358.462 361.443 358.141 362.017 357.981 362.71 357.981ZM235.647 357.981 241.73 357.981C242.477 357.981 243.011 358.141 243.331 358.462 243.651 358.782 243.838 359.209 243.891 359.743L252.696 411.555C252.856 412.356 252.776 412.969 252.456 413.397 252.135 413.824 251.708 414.037 251.175 414.037L247.093 414.037C246.506 414.037 246.052 413.89 245.732 413.597 245.412 413.303 245.199 412.863 245.092 412.275L243.011 401.305 216.758 401.305 209.874 412.676C209.661 413.05 209.354 413.37 208.954 413.637 208.554 413.904 208.087 414.037 207.553 414.037L203.231 414.037C202.537 414.037 202.07 413.757 201.83 413.196 201.59 412.636 201.63 412.089 201.95 411.555L232.766 359.743C233.086 359.209 233.473 358.782 233.926 358.462 234.38 358.141 234.953 357.981 235.647 357.981ZM301.68 357.18C304.935 357.18 307.736 357.621 310.084 358.502 312.432 359.383 314.353 360.557 315.847 362.025 317.341 363.493 318.368 365.068 318.929 366.75 319.489 368.432 319.636 370.073 319.369 371.675 319.315 372.049 319.155 372.409 318.889 372.756 318.622 373.103 318.195 373.276 317.608 373.276L313.046 373.276C312.726 373.276 312.379 373.17 312.005 372.956 311.632 372.743 311.418 372.342 311.365 371.755 311.525 369.566 310.671 367.724 308.804 366.229 306.936 364.735 304.455 363.987 301.36 363.987 297.945 363.987 294.957 364.655 292.395 365.989 289.834 367.324 288.233 369.406 287.593 372.235 287.22 374.051 287.406 375.559 288.153 376.76 288.9 377.961 290.261 379.016 292.235 379.923 294.21 380.831 296.878 381.792 300.239 382.806 304.241 383.981 307.443 385.288 309.844 386.73 312.245 388.171 313.899 389.92 314.807 391.975 315.714 394.031 315.847 396.58 315.207 399.623 314.14 404.641 311.538 408.432 307.403 410.994 303.268 413.557 297.918 414.838 291.355 414.838 286.713 414.838 282.924 414.144 279.989 412.756 277.054 411.368 274.933 409.526 273.626 407.23 272.319 404.935 271.852 402.506 272.225 399.943 272.279 399.516 272.466 399.129 272.786 398.782 273.106 398.435 273.506 398.261 273.986 398.261L278.388 398.261C278.975 398.261 279.389 398.422 279.629 398.742 279.869 399.062 280.043 399.436 280.149 399.863 280.149 401.144 280.536 402.412 281.31 403.667 282.084 404.921 283.311 405.962 284.992 406.79 286.673 407.617 288.9 408.031 291.675 408.031 296.264 408.031 299.866 407.217 302.48 405.589 305.095 403.96 306.696 401.785 307.283 399.062 307.71 397.194 307.47 395.686 306.562 394.538 305.655 393.39 304.121 392.362 301.96 391.455 299.799 390.547 296.958 389.559 293.436 388.492 289.807 387.371 286.873 386.089 284.632 384.648 282.39 383.206 280.87 381.431 280.069 379.323 279.269 377.214 279.189 374.638 279.829 371.595 280.79 367.271 283.137 363.787 286.873 361.144 290.608 358.502 295.544 357.18 301.68 357.18ZM147.156 338.721 190.273 338.721 115.206 485.926 208.704 485.926 208.704 521.916 53.7348 521.916ZM292.923 52.8765 374.626 213.093 334.29 213.093 293.931 123.697 236.274 251.406 351.588 251.406 351.588 251.406 394.164 251.406 532.112 521.916 377.143 521.916 377.143 486.506 470.641 486.506 375.74 300.408 374.732 302.383 374.732 299.247 167.286 299.247ZM49.8643 10.5485C28.8133 10.5485 11.7481 27.6222 11.7481 48.6838L11.7481 530.681C11.7481 551.742 28.8133 568.816 49.8643 568.816L533.851 568.816C554.902 568.816 571.968 551.742 571.968 530.681L571.968 48.6838C571.968 27.6222 554.902 10.5485 533.851 10.5485ZM45.2314 4.82843 538.425 4.82843C560.739 4.82843 578.828 22.9265 578.828 45.2517L578.828 536.405C578.828 558.73 560.739 576.828 538.425 576.828L45.2314 576.828C22.9174 576.828 4.82843 558.73 4.82843 536.405L4.82843 45.2517C4.82843 22.9265 22.9174 4.82843 45.2314 4.82843Z" fill="#004F93" fill-rule="evenodd"/></g></g><path d="M457.083 488.215 501.355 488.215 545.628 488.215 589.9 488.215 634.172 488.215 634.172 492.219 589.9 492.219 545.628 492.219 501.355 492.219 457.083 492.219ZM616.643 434.161 599.755 462.589 621.445 462.589ZM489.58 434.161 472.691 462.589 494.382 462.589ZM614.882 426.153 620.965 426.153C621.712 426.153 622.246 426.313 622.566 426.633 622.886 426.954 623.073 427.381 623.126 427.915L631.93 479.726C632.091 480.527 632.01 481.141 631.69 481.568 631.37 481.995 630.943 482.209 630.41 482.209L626.328 482.209C625.741 482.209 625.287 482.062 624.967 481.768 624.647 481.475 624.433 481.034 624.327 480.447L622.246 469.476 595.993 469.476 589.109 480.847C588.896 481.221 588.589 481.541 588.189 481.808 587.789 482.075 587.322 482.209 586.788 482.209L582.466 482.209C581.772 482.209 581.305 481.929 581.065 481.368 580.825 480.807 580.865 480.26 581.185 479.726L612.001 427.915C612.321 427.381 612.708 426.954 613.161 426.633 613.615 426.313 614.188 426.153 614.882 426.153ZM487.819 426.153 493.902 426.153C494.649 426.153 495.182 426.313 495.503 426.633 495.823 426.954 496.009 427.381 496.063 427.915L504.867 479.726C505.027 480.527 504.947 481.141 504.627 481.568 504.307 481.995 503.88 482.209 503.346 482.209L499.264 482.209C498.677 482.209 498.224 482.062 497.904 481.768 497.584 481.475 497.37 481.034 497.263 480.447L495.182 469.476 468.929 469.476 462.046 480.847C461.832 481.221 461.526 481.541 461.125 481.808 460.725 482.075 460.258 482.209 459.725 482.209L455.403 482.209C454.709 482.209 454.242 481.929 454.002 481.368 453.762 480.807 453.802 480.26 454.122 479.726L484.937 427.915C485.257 427.381 485.644 426.954 486.098 426.633 486.551 426.313 487.125 426.153 487.819 426.153ZM553.852 425.352C557.107 425.352 559.908 425.792 562.256 426.673 564.604 427.554 566.525 428.729 568.019 430.197 569.513 431.665 570.54 433.24 571.1 434.922 571.661 436.603 571.807 438.245 571.54 439.846 571.487 440.22 571.327 440.581 571.06 440.928 570.793 441.275 570.366 441.448 569.78 441.448L565.217 441.448C564.897 441.448 564.55 441.341 564.177 441.128 563.803 440.914 563.59 440.514 563.536 439.927 563.697 437.738 562.843 435.896 560.975 434.401 559.108 432.906 556.626 432.159 553.531 432.159 550.116 432.159 547.128 432.826 544.567 434.161 542.006 435.495 540.405 437.578 539.765 440.407 539.391 442.222 539.578 443.73 540.325 444.932 541.072 446.133 542.433 447.187 544.407 448.095 546.381 449.002 549.049 449.963 552.411 450.978 556.413 452.152 559.615 453.46 562.016 454.902 564.417 456.343 566.071 458.091 566.978 460.147 567.885 462.202 568.019 464.751 567.378 467.794 566.311 472.813 563.71 476.603 559.574 479.166 555.439 481.728 550.09 483.01 543.526 483.01 538.884 483.01 535.096 482.316 532.161 480.928 529.226 479.539 527.105 477.698 525.798 475.402 524.49 473.106 524.023 470.677 524.397 468.115 524.45 467.688 524.637 467.301 524.957 466.954 525.277 466.607 525.678 466.433 526.158 466.433L530.56 466.433C531.147 466.433 531.561 466.593 531.801 466.914 532.041 467.234 532.214 467.608 532.321 468.035 532.321 469.316 532.708 470.584 533.481 471.838 534.255 473.093 535.482 474.134 537.163 474.962 538.844 475.789 541.072 476.203 543.847 476.203 548.436 476.203 552.037 475.389 554.652 473.76 557.267 472.132 558.867 469.957 559.454 467.234 559.881 465.365 559.641 463.857 558.734 462.709 557.827 461.562 556.293 460.534 554.132 459.626 551.971 458.719 549.129 457.731 545.607 456.663 541.979 455.542 539.044 454.261 536.803 452.819 534.562 451.378 533.041 449.603 532.241 447.494 531.44 445.385 531.36 442.809 532.001 439.766 532.961 435.442 535.309 431.959 539.044 429.316 542.779 426.673 547.715 425.352 553.852 425.352ZM399.328 406.892 442.445 406.892 367.377 554.097 460.875 554.097 460.875 590.088 305.906 590.088ZM545.095 121.048 626.798 281.265 586.462 281.265 546.102 191.868 488.445 319.577 603.759 319.577 603.759 319.577 646.336 319.577 784.284 590.088 629.314 590.088 629.314 554.678 722.813 554.678 627.911 368.58 626.904 370.555 626.904 367.419 419.457 367.419ZM302.036 78.72C280.985 78.72 263.92 95.7938 263.92 116.855L263.92 598.852C263.92 619.914 280.985 636.988 302.036 636.988L786.023 636.988C807.074 636.988 824.139 619.914 824.139 598.852L824.139 116.855C824.139 95.7938 807.074 78.72 786.023 78.72ZM297.403 73 790.597 73C812.911 73 831 91.0981 831 113.423L831 604.577C831 626.902 812.911 645 790.597 645L297.403 645C275.089 645 257 626.902 257 604.577L257 113.423C257 91.0981 275.089 73 297.403 73Z" fill="#004F93" fill-rule="evenodd"/></g></svg>